<svg xmlns="http://www.w3.org/2000/svg" version="1.1" xmlns:xlink="http://www.w3.org/1999/xlink" xmlns:svgjs="http://svgjs.com/svgjs" width="1440" height="560" preserveAspectRatio="none" viewBox="0 0 1440 560"><g mask="url(&quot;#SvgjsMask1004&quot;)" fill="none"><rect width="1440" height="560" x="0" y="0" fill="rgba(246, 46, 112, 1)"></rect><path d="M 0,219 C 57.6,178.2 172.8,20.4 288,15 C 403.2,9.6 460.8,186.6 576,192 C 691.2,197.4 748.8,50.6 864,42 C 979.2,33.4 1036.8,146.2 1152,149 C 1267.2,151.8 1382.4,74.6 1440,56L1440 560L0 560z" fill="rgba(249, 142, 170, 1)"></path><path d="M 0,535 C 96,502 288,389.8 480,370 C 672,350.2 768,428.2 960,436 C 1152,443.8 1344,414.4 1440,409L1440 560L0 560z" fill="rgba(246, 187, 196, 1)"></path></g><defs><mask id="SvgjsMask1004"><rect width="1440" height="560" fill="#ffffff"></rect></mask></defs></svg>