<svg xmlns="http://www.w3.org/2000/svg" version="1.1" xmlns:xlink="http://www.w3.org/1999/xlink" xmlns:svgjs="http://svgjs.com/svgjs" width="1440" height="560" preserveAspectRatio="none" viewBox="0 0 1440 560"><g mask="url(&quot;#SvgjsMask1009&quot;)" fill="none"><rect width="1440" height="560" x="0" y="0" fill="rgba(242, 200, 214, 1)"></rect><path d="M1512 560L0 560 L0 376.95Q32.95 337.9, 72 370.86Q66.19 293.05, 144 287.24Q201.52 224.76, 264 282.29Q335.42 281.71, 336 353.12Q381.18 326.3, 408 371.48Q433.19 276.67, 528 301.85Q557.52 259.37, 600 288.89Q650.09 266.98, 672 317.07Q749.47 274.54, 792 352.02Q795.06 283.08, 864 286.14Q929.22 231.36, 984 296.57Q1045.03 285.6, 1056 346.63Q1099.33 269.96, 1176 313.29Q1219.87 285.16, 1248 329.03Q1293.81 254.84, 1368 300.65Q1395.11 255.76, 1440 282.87Q1497.59 268.46, 1512 326.05z" fill="rgba(248, 143, 176, 1)"></path><path d="M1464 560L0 560 L0 382.74Q65.79 328.53, 120 394.33Q144.84 347.17, 192 372.02Q284.75 344.77, 312 437.52Q333.83 387.35, 384 409.18Q393.4 346.58, 456 355.98Q499.48 327.46, 528 370.94Q595.7 318.64, 648 386.35Q690.59 308.94, 768 351.52Q854.58 318.1, 888 404.67Q932.97 377.63, 960 422.6Q1001.93 344.54, 1080 386.47Q1097.94 332.41, 1152 350.35Q1221.32 299.67, 1272 368.98Q1330.65 355.63, 1344 414.29Q1374.72 325.01, 1464 355.73z" fill="rgba(234, 98, 146, 1)"></path><path d="M1464 560L0 560 L0 425.36Q83.59 388.95, 120 472.54Q201.66 434.2, 240 515.86Q290.75 446.61, 360 497.35Q386.88 452.23, 432 479.11Q483.74 410.85, 552 462.59Q637.28 427.87, 672 513.14Q719.84 440.98, 792 488.82Q821.43 398.25, 912 427.68Q953.87 397.55, 984 439.42Q1047.73 431.15, 1056 494.89Q1057.93 424.82, 1128 426.76Q1178.66 405.42, 1200 456.09Q1249.05 433.13, 1272 482.18Q1337.12 427.3, 1392 492.41Q1392.19 420.61, 1464 420.8z" fill="rgba(176, 20, 85, 1)"></path><path d="M1488 560L0 560 L0 559.13Q41.22 528.35, 72 569.57Q116.75 494.32, 192 539.06Q232.83 459.89, 312 500.72Q397.53 466.25, 432 551.78Q508.74 508.52, 552 585.26Q581.22 542.48, 624 571.69Q668.79 496.49, 744 541.28Q788.82 514.1, 816 558.92Q852.65 475.57, 936 512.21Q1001.62 457.83, 1056 523.44Q1116.29 511.74, 1128 572.03Q1151.34 475.37, 1248 498.71Q1314.35 445.05, 1368 511.4Q1448.57 471.97, 1488 552.55z" fill="white"></path></g><defs><mask id="SvgjsMask1009"><rect width="1440" height="560" fill="#ffffff"></rect></mask></defs></svg>